<svg id="svg" version="1.1" xmlns="http://www.w3.org/2000/svg" xmlns:xlink="http://www.w3.org/1999/xlink" width="400" height="371.42857142857144" viewBox="0, 0, 400,371.42857142857144"><g id="svgg"><path id="path0" d="M48.002 223.311 C 47.772 223.558,47.584 224.504,47.584 225.412 L 47.584 227.064 43.401 227.320 C 39.303 227.570,28.959 227.385,26.401 227.015 C 24.906 226.799,24.352 227.020,24.845 227.635 C 25.201 228.079,25.151 230.735,24.780 231.106 C 24.665 231.221,21.961 231.360,18.771 231.415 C 12.231 231.527,12.585 231.413,12.446 233.465 C 12.317 235.366,12.402 235.293,9.995 235.564 C 7.510 235.844,7.063 236.186,7.063 237.802 C 7.063 239.780,6.544 240.402,4.657 240.685 L 2.974 240.938 2.974 243.170 C 2.974 244.398,3.146 245.723,3.355 246.115 C 3.631 246.629,3.577 247.320,3.160 248.600 C 2.648 250.174,2.595 256.317,2.686 303.532 L 2.788 356.691 4.429 356.783 C 6.443 356.896,6.429 356.882,6.676 359.030 C 6.903 361.001,6.380 360.813,11.918 360.915 C 15.098 360.973,15.925 361.391,16.099 363.028 C 16.297 364.895,16.412 364.937,21.456 364.960 C 27.672 364.989,30.774 365.565,30.688 366.674 C 30.654 367.113,30.782 367.681,30.972 367.937 C 31.191 368.232,31.178 368.401,30.935 368.401 C 30.725 368.401,30.640 368.734,30.746 369.141 C 30.853 369.547,31.097 369.783,31.289 369.664 C 32.275 369.055,53.037 368.939,57.993 369.515 C 59.730 369.717,61.362 369.884,61.617 369.886 C 61.873 369.887,62.082 370.307,62.082 370.818 L 62.082 371.747 82.900 371.747 L 103.717 371.747 103.717 370.818 C 103.717 370.185,103.925 369.885,104.368 369.877 C 104.726 369.871,106.259 369.705,107.774 369.508 C 112.030 368.955,130.361 368.948,132.163 369.498 C 133.225 369.823,134.030 369.847,134.951 369.583 C 135.663 369.379,135.947 369.197,135.582 369.179 C 135.071 369.153,134.996 368.995,135.258 368.494 C 135.445 368.137,135.547 367.397,135.485 366.850 C 135.377 365.891,135.463 365.842,138.027 365.409 C 140.774 364.946,149.028 365.093,150.330 365.629 C 150.850 365.843,150.982 365.782,150.841 365.394 C 150.736 365.106,150.462 364.912,150.232 364.963 C 149.972 365.021,149.814 364.439,149.814 363.420 L 149.814 361.784 151.675 361.338 C 152.705 361.091,154.770 360.969,156.301 361.065 C 159.350 361.256,159.388 361.231,159.745 358.736 C 159.848 358.020,160.111 357.100,160.331 356.691 C 160.918 355.598,161.162 322.357,160.649 313.363 C 160.417 309.292,160.213 292.330,160.182 274.535 C 160.130 244.177,160.100 242.864,159.404 241.078 C 158.629 239.088,157.422 237.546,156.638 237.546 C 156.012 237.546,153.696 236.242,152.739 235.350 C 151.883 234.553,149.797 233.760,146.840 233.109 C 144.848 232.671,143.433 232.242,141.729 231.561 C 137.993 230.068,136.666 229.719,133.369 229.363 C 131.680 229.180,129.043 228.849,127.509 228.626 C 125.976 228.404,123.634 228.076,122.305 227.897 C 120.976 227.718,119.052 227.316,118.030 227.004 C 114.333 225.876,99.905 225.161,80.112 225.126 C 63.550 225.097,61.382 225.025,60.223 224.471 C 57.874 223.349,48.771 222.485,48.002 223.311 M105.390 233.311 C 108.457 233.622,112.305 234.007,113.941 234.167 C 115.576 234.326,117.333 234.633,117.844 234.848 C 119.257 235.442,121.454 235.963,124.535 236.434 C 128.073 236.974,130.570 237.567,131.022 237.973 C 131.217 238.147,131.650 238.290,131.985 238.290 C 132.546 238.290,137.175 242.578,137.175 243.098 C 137.175 243.224,136.328 244.201,135.293 245.269 C 132.469 248.184,130.485 248.936,122.305 250.197 C 120.771 250.434,118.931 250.857,118.216 251.137 C 110.528 254.152,54.433 254.320,48.771 251.346 C 48.202 251.047,45.730 250.542,39.219 249.393 C 33.608 248.403,28.089 244.358,29.534 242.295 C 30.386 241.079,34.607 237.918,35.680 237.692 C 36.196 237.584,37.001 237.339,37.471 237.149 C 37.941 236.959,38.767 236.803,39.307 236.803 C 40.750 236.803,44.334 236.111,48.156 235.094 C 50.005 234.603,52.244 234.201,53.132 234.201 C 54.020 234.201,55.351 234.032,56.091 233.825 C 60.227 232.670,95.461 232.303,105.390 233.311 " stroke="none" fill="#089dd9" fill-rule="evenodd"></path><path id="path1" d="M187.546 5.210 C 180.234 5.481,178.799 5.682,176.208 6.798 C 173.325 8.040,168.666 8.534,156.686 8.868 C 145.279 9.186,144.684 9.239,142.373 10.133 C 136.112 12.554,136.307 12.521,124.349 13.222 C 120.187 13.467,119.267 13.714,118.137 14.890 C 117.177 15.889,114.120 16.592,108.550 17.096 C 103.877 17.519,101.872 18.035,101.299 18.962 C 100.684 19.958,98.011 20.817,94.493 21.148 C 90.614 21.513,89.529 21.878,88.290 23.237 C 87.881 23.686,87.212 24.180,86.803 24.334 C 85.460 24.843,81.989 25.624,81.015 25.637 C 80.113 25.650,78.439 27.092,78.439 27.857 C 78.439 28.174,74.738 29.740,73.990 29.740 C 73.808 29.740,73.054 30.310,72.314 31.008 C 71.575 31.706,70.183 32.630,69.221 33.062 C 66.052 34.485,66.403 33.828,65.438 40.149 C 64.917 43.564,65.808 47.766,67.467 49.716 C 68.122 50.485,68.851 51.480,69.086 51.925 C 69.362 52.447,70.232 52.943,71.536 53.322 C 72.940 53.730,73.835 54.265,74.468 55.074 C 75.363 56.217,77.167 57.120,79.368 57.524 C 80.675 57.765,82.044 58.560,83.086 59.684 C 83.914 60.578,87.191 61.707,88.983 61.716 C 90.561 61.723,92.637 62.485,94.065 63.579 C 95.321 64.541,97.530 65.229,100.558 65.599 C 103.248 65.928,105.600 66.580,106.877 67.351 C 107.491 67.721,108.327 68.174,108.736 68.357 C 109.775 68.823,114.527 69.517,116.679 69.517 C 118.168 69.517,121.661 70.150,126.301 71.262 C 126.761 71.372,127.138 71.583,127.138 71.731 C 127.138 72.716,133.498 73.612,141.636 73.774 C 144.396 73.829,147.156 74.045,147.770 74.254 C 148.383 74.463,149.638 74.858,150.558 75.131 C 151.478 75.404,152.425 75.816,152.663 76.046 C 152.901 76.275,154.992 76.572,157.310 76.705 C 159.628 76.838,162.109 77.115,162.823 77.321 C 163.537 77.527,167.481 77.695,171.586 77.695 C 176.304 77.695,180.419 77.900,182.767 78.251 C 185.393 78.643,189.199 78.792,195.751 78.756 C 200.856 78.728,206.605 78.899,208.550 79.137 C 213.705 79.766,217.249 80.219,220.818 80.703 C 224.406 81.189,237.721 80.929,241.636 80.295 C 242.965 80.080,245.796 79.748,247.928 79.558 C 250.060 79.367,252.067 79.107,252.389 78.980 C 252.711 78.853,257.178 78.761,262.317 78.775 C 268.485 78.793,273.160 78.615,276.072 78.251 C 278.654 77.929,283.643 77.699,288.104 77.696 C 292.296 77.693,296.310 77.530,297.026 77.333 C 297.742 77.137,300.065 76.814,302.188 76.616 C 304.311 76.418,306.227 76.078,306.444 75.860 C 306.662 75.643,307.191 75.465,307.621 75.465 C 308.050 75.465,308.560 75.326,308.755 75.156 C 309.484 74.518,312.260 73.977,314.913 73.957 C 321.858 73.903,330.080 73.021,330.948 72.236 C 331.969 71.311,333.902 70.632,335.511 70.632 C 336.170 70.632,337.421 70.381,338.290 70.074 C 339.176 69.762,341.198 69.510,342.891 69.501 C 346.488 69.482,349.488 68.846,350.645 67.856 C 351.861 66.814,354.000 66.169,357.583 65.762 C 362.156 65.242,363.997 64.707,365.144 63.565 C 366.162 62.553,366.874 62.309,372.132 61.174 C 374.253 60.716,375.175 60.314,375.925 59.519 C 376.966 58.416,377.649 58.094,381.138 57.065 C 382.316 56.718,383.487 56.138,383.740 55.777 C 384.296 54.985,386.603 53.535,387.311 53.533 C 387.591 53.532,388.470 52.882,389.264 52.087 C 390.059 51.292,391.450 50.080,392.355 49.392 C 395.685 46.863,396.477 38.992,393.560 37.422 C 392.771 36.997,392.028 36.163,391.592 35.215 C 391.132 34.214,390.400 33.418,389.457 32.897 C 388.668 32.460,387.842 31.780,387.622 31.386 C 386.961 30.199,386.514 29.905,384.572 29.382 C 382.099 28.715,381.025 28.148,380.010 26.975 C 378.979 25.782,378.159 25.458,375.279 25.105 C 372.614 24.779,371.884 24.441,370.547 22.917 C 369.518 21.744,366.028 20.884,362.082 20.832 C 360.675 20.814,359.025 19.958,357.546 18.478 C 356.763 17.695,356.142 17.509,353.678 17.317 C 344.486 16.599,344.250 16.545,339.733 14.097 C 338.622 13.495,337.141 13.301,331.220 12.982 C 323.766 12.580,324.131 12.654,316.543 10.039 C 313.966 9.151,312.797 9.060,300.000 8.748 C 289.004 8.481,282.392 7.604,281.591 6.307 C 281.483 6.133,280.605 5.876,279.638 5.736 C 278.672 5.595,277.546 5.399,277.138 5.299 C 275.896 4.994,195.516 4.915,187.546 5.210 M249.257 18.888 C 255.107 19.741,260.916 20.132,269.703 20.263 C 288.649 20.547,293.860 21.001,297.584 22.696 C 299.487 23.562,301.476 23.847,310.223 24.503 C 315.967 24.934,318.799 25.547,321.561 26.959 C 323.013 27.701,324.695 28.146,327.361 28.496 C 331.606 29.052,333.248 29.625,334.535 30.998 C 335.041 31.539,336.325 32.202,337.509 32.534 C 340.996 33.512,341.664 33.888,342.629 35.418 C 343.140 36.227,343.878 36.973,344.270 37.075 C 344.661 37.178,344.981 37.409,344.981 37.590 C 344.981 37.770,345.214 37.918,345.499 37.918 C 346.555 37.918,347.615 42.350,347.001 44.198 C 346.505 45.693,342.304 50.186,341.403 50.186 C 341.278 50.186,340.628 50.667,339.958 51.255 C 338.576 52.469,336.545 53.269,333.199 53.920 C 331.932 54.167,330.570 54.672,330.171 55.043 C 328.983 56.150,324.043 57.619,321.461 57.634 C 318.427 57.651,315.146 58.400,312.766 59.618 C 310.624 60.715,306.772 61.220,296.840 61.708 C 293.773 61.859,290.595 62.187,289.777 62.436 C 288.959 62.686,286.366 63.132,284.015 63.427 C 275.363 64.513,273.753 64.742,271.933 65.143 C 270.660 65.424,257.718 65.586,230.855 65.657 C 190.491 65.764,188.856 65.718,182.615 64.301 C 181.744 64.103,180.071 63.931,178.898 63.920 C 176.702 63.899,172.091 63.207,169.145 62.455 C 168.225 62.221,164.712 61.884,161.338 61.707 C 152.273 61.231,147.982 60.585,146.235 59.433 C 144.788 58.480,143.946 58.307,137.361 57.615 C 133.028 57.160,131.014 56.611,129.182 55.387 C 127.489 54.255,125.578 53.532,124.282 53.532 C 123.032 53.532,120.083 51.936,118.835 50.584 C 118.255 49.956,117.533 49.442,117.230 49.442 C 116.378 49.442,114.126 47.571,114.126 46.863 C 114.126 46.515,113.519 45.520,112.776 44.653 L 111.425 43.075 112.402 40.587 C 113.011 39.034,113.763 37.820,114.403 37.358 C 114.966 36.950,116.231 35.846,117.212 34.905 C 118.267 33.893,119.636 33.002,120.558 32.727 C 122.857 32.042,124.907 31.152,124.907 30.839 C 124.907 30.211,128.292 29.080,131.413 28.665 C 134.547 28.248,136.557 27.708,139.219 26.570 C 139.833 26.308,141.004 25.817,141.821 25.480 C 142.737 25.103,145.236 24.738,148.327 24.531 C 155.858 24.026,161.372 23.333,161.878 22.828 C 163.504 21.201,171.423 20.470,189.963 20.235 C 194.768 20.174,200.623 19.938,202.974 19.712 C 207.480 19.278,213.187 18.607,214.126 18.400 C 215.630 18.069,246.590 18.499,249.257 18.888 M194.610 25.311 C 192.565 25.450,188.480 25.583,185.532 25.607 C 179.355 25.657,176.114 26.127,173.247 27.389 C 171.138 28.317,170.109 28.435,156.134 29.356 C 149.010 29.826,145.868 30.375,144.424 31.403 C 143.053 32.379,140.725 33.081,138.804 33.099 C 134.796 33.135,130.846 34.083,128.783 35.504 C 127.198 36.596,126.080 37.025,123.692 37.456 C 122.009 37.760,120.350 38.256,120.004 38.558 C 119.120 39.332,117.928 43.213,118.515 43.408 C 118.759 43.490,118.959 43.774,118.959 44.041 C 118.959 44.307,119.545 44.803,120.261 45.143 C 120.977 45.483,121.939 46.135,122.399 46.591 C 123.459 47.645,124.943 48.208,127.431 48.499 C 128.513 48.625,129.851 48.910,130.405 49.132 C 132.416 49.937,133.289 50.357,134.201 50.957 C 135.251 51.650,137.736 52.116,144.981 52.980 C 152.198 53.840,152.065 53.812,154.053 54.871 C 156.120 55.971,158.976 56.313,169.145 56.677 C 175.237 56.895,180.095 57.332,184.015 58.014 C 196.893 60.254,232.642 61.294,252.788 60.015 C 265.492 59.208,267.745 58.987,278.996 57.444 C 281.245 57.136,284.758 56.881,286.803 56.878 C 293.038 56.870,303.385 55.825,304.459 55.096 C 306.210 53.907,307.521 53.532,309.918 53.532 C 311.237 53.532,312.653 53.351,313.065 53.131 C 313.476 52.911,315.598 52.584,317.780 52.404 C 322.591 52.008,323.954 51.683,325.667 50.521 C 326.393 50.030,328.398 49.322,330.128 48.948 C 335.207 47.848,336.077 47.508,337.625 46.021 C 338.443 45.235,339.467 44.610,339.936 44.610 C 341.939 44.610,342.578 42.505,340.878 41.501 C 340.258 41.134,339.348 40.198,338.857 39.421 C 337.938 37.964,336.429 37.175,334.562 37.175 C 333.218 37.175,331.192 36.305,330.338 35.361 C 329.415 34.341,328.051 33.966,323.420 33.460 C 318.694 32.943,316.698 32.479,314.498 31.385 C 312.327 30.304,309.938 29.874,303.346 29.375 C 300.381 29.150,295.723 28.797,292.995 28.591 C 289.561 28.330,287.444 27.977,286.117 27.444 C 282.810 26.114,281.804 25.967,273.420 25.593 C 263.891 25.169,200.086 24.940,194.610 25.311 M392.276 53.739 C 391.822 54.057,391.450 54.571,391.450 54.880 C 391.450 55.538,390.571 56.506,389.975 56.506 C 389.108 56.506,386.602 58.042,386.020 58.930 C 385.329 59.984,382.143 61.710,380.886 61.710 C 380.426 61.710,379.364 62.337,378.527 63.104 C 376.826 64.662,373.824 65.799,371.412 65.799 C 369.706 65.799,368.911 66.129,366.914 67.664 C 365.571 68.697,363.058 69.367,359.447 69.656 C 356.815 69.867,354.496 70.557,353.591 71.400 C 352.434 72.477,349.495 73.268,345.353 73.617 C 340.114 74.058,337.143 74.650,336.245 75.431 C 334.771 76.714,328.785 77.695,322.425 77.695 C 320.047 77.695,318.104 77.899,317.100 78.253 C 316.231 78.559,314.771 78.810,313.856 78.810 C 312.940 78.810,310.745 79.289,308.977 79.874 C 307.209 80.460,305.260 81.067,304.647 81.224 C 303.553 81.505,297.372 81.688,281.413 81.913 C 273.544 82.025,270.465 82.386,267.759 83.517 C 262.853 85.566,194.831 85.652,191.022 83.613 C 188.395 82.207,177.342 81.487,162.268 81.740 C 159.610 81.784,156.682 81.633,155.762 81.404 C 152.005 80.468,149.969 79.799,149.413 79.318 C 149.045 78.999,147.912 78.810,146.370 78.810 C 145.020 78.810,143.444 78.611,142.868 78.367 C 142.292 78.124,139.145 77.800,135.874 77.648 C 126.571 77.215,123.918 76.740,122.416 75.238 C 121.328 74.150,121.153 74.115,114.411 73.626 C 108.805 73.220,105.834 72.525,104.838 71.387 C 104.049 70.487,102.095 69.917,98.469 69.531 C 94.067 69.062,93.331 68.840,91.491 67.433 C 90.593 66.747,89.255 66.088,88.517 65.970 C 84.028 65.249,81.793 64.452,80.691 63.177 C 80.132 62.530,77.109 61.338,76.028 61.338 C 75.739 61.338,74.705 60.586,73.731 59.665 C 72.757 58.745,71.746 57.993,71.483 57.993 C 70.796 57.993,68.030 55.405,68.030 54.762 C 68.030 53.806,66.797 54.415,66.005 55.763 C 64.852 57.727,64.423 217.938,65.566 220.073 C 66.453 221.732,67.507 223.075,67.739 222.843 C 69.792 220.790,90.236 220.604,99.257 222.556 C 99.768 222.667,102.862 222.891,106.134 223.055 C 123.878 223.943,131.600 224.829,134.201 226.276 C 135.411 226.949,136.907 227.277,143.400 228.290 C 146.520 228.777,147.880 229.258,149.071 230.298 C 149.582 230.744,151.255 231.495,152.788 231.966 C 155.930 232.931,159.498 235.618,162.227 239.073 C 162.613 239.563,163.182 240.255,163.491 240.612 C 163.986 241.183,164.044 245.321,163.976 274.813 C 163.909 303.498,163.975 308.469,164.432 309.088 C 164.948 309.786,167.131 310.422,171.004 311.004 C 171.924 311.142,172.844 311.377,173.048 311.526 C 173.253 311.674,173.838 311.893,174.349 312.010 C 174.861 312.128,176.283 312.455,177.509 312.736 C 178.736 313.017,181.577 313.291,183.822 313.346 C 186.067 313.400,188.074 313.556,188.283 313.691 C 188.891 314.086,261.549 314.114,269.517 313.723 C 277.998 313.306,281.060 312.930,285.874 311.714 C 291.623 310.262,293.425 310.077,302.788 309.978 C 313.039 309.870,315.411 309.612,318.129 308.311 C 320.784 307.040,326.276 305.959,330.112 305.952 C 335.767 305.941,339.768 305.291,341.450 304.109 C 343.653 302.561,346.112 301.859,349.332 301.859 C 353.108 301.859,356.632 301.213,357.557 300.351 C 358.919 299.082,360.763 298.144,361.896 298.143 C 365.408 298.141,369.600 296.943,371.003 295.540 C 372.249 294.294,372.660 294.121,374.951 293.876 C 377.941 293.558,378.515 293.299,380.010 291.596 C 380.623 290.899,381.565 290.231,382.105 290.112 C 385.198 289.433,386.566 288.757,387.698 287.348 C 388.349 286.537,389.097 285.874,389.358 285.874 C 389.928 285.874,391.109 284.580,391.795 283.203 C 392.069 282.654,392.793 281.998,393.404 281.745 C 395.682 280.801,395.529 288.999,395.537 167.558 C 395.542 83.524,395.437 55.947,395.109 54.988 C 394.451 53.067,393.705 52.738,392.276 53.739 M58.922 237.919 C 57.491 238.072,54.803 238.218,52.949 238.244 C 49.128 238.296,45.436 238.878,44.610 239.558 C 43.808 240.217,41.740 240.778,36.803 241.672 C 32.428 242.465,32.983 243.808,38.095 244.799 C 41.847 245.526,44.112 246.248,44.963 246.990 C 47.631 249.314,119.547 249.370,120.893 247.049 C 121.036 246.802,121.872 246.385,122.751 246.123 C 123.630 245.862,124.734 245.498,125.203 245.314 C 125.673 245.131,126.571 244.981,127.199 244.981 C 128.526 244.981,133.086 243.493,133.086 243.059 C 133.086 242.897,132.625 242.664,132.063 242.541 C 131.501 242.418,130.790 242.230,130.483 242.125 C 129.646 241.835,124.496 240.499,123.327 240.267 C 122.765 240.156,122.305 239.924,122.305 239.752 C 122.305 239.126,119.387 238.606,113.755 238.229 C 106.894 237.771,62.651 237.520,58.922 237.919 " stroke="none" fill="#fafafa" fill-rule="evenodd"></path><path id="path2" d="M157.993 1.110 L 157.993 2.221 145.463 2.318 C 133.291 2.414,132.927 2.438,132.730 3.160 C 132.619 3.569,132.031 4.447,131.423 5.112 L 130.318 6.320 120.456 6.325 C 109.293 6.331,108.807 6.425,108.624 8.602 C 108.489 10.196,107.572 10.400,100.508 10.406 C 95.959 10.409,95.930 10.426,95.916 13.050 C 95.910 14.140,93.745 14.498,87.162 14.498 C 83.823 14.498,83.661 14.620,83.648 17.143 C 83.642 18.235,82.287 18.587,78.085 18.587 C 75.248 18.587,73.047 19.656,72.326 21.383 C 71.803 22.635,71.720 22.677,69.765 22.677 C 67.587 22.677,67.304 22.980,67.291 25.319 C 67.287 26.199,67.104 26.320,65.335 26.621 L 63.383 26.952 63.271 28.692 L 63.158 30.433 61.226 30.739 L 59.294 31.045 59.181 32.994 L 59.069 34.944 57.647 34.944 C 56.778 34.944,56.027 35.183,55.715 35.559 C 55.286 36.076,55.188 50.723,55.104 127.333 L 55.004 218.493 51.989 218.878 C 48.577 219.313,47.661 219.926,47.515 221.868 C 47.463 222.548,47.265 223.202,47.073 223.320 C 46.882 223.438,46.845 223.342,46.991 223.106 C 47.275 222.646,28.527 222.452,27.354 222.902 C 26.262 223.321,26.553 226.703,27.719 227.147 C 28.790 227.554,39.814 227.632,44.517 227.266 L 47.584 227.027 47.584 225.394 C 47.584 222.952,47.842 222.824,52.184 223.115 C 57.115 223.445,58.597 223.704,60.498 224.565 C 62.915 225.660,63.417 225.526,62.345 224.071 C 60.066 220.977,60.203 226.945,60.311 135.874 C 60.384 74.336,60.519 52.734,60.837 52.045 C 62.256 48.961,62.481 47.219,61.611 46.043 C 60.921 45.110,60.759 44.334,60.653 41.445 L 60.525 37.969 61.999 37.527 C 63.563 37.059,64.684 35.451,64.684 33.676 C 64.684 32.616,65.217 32.140,66.884 31.709 C 68.189 31.372,68.518 31.019,69.124 29.308 C 69.498 28.250,72.327 27.138,74.644 27.138 C 75.621 27.138,75.783 26.979,76.001 25.819 C 76.293 24.263,76.730 24.045,80.820 23.426 C 84.541 22.862,84.758 22.771,84.758 21.778 C 84.758 19.968,85.435 19.657,89.641 19.538 C 94.818 19.391,96.131 18.956,96.444 17.283 C 96.768 15.558,96.662 15.588,103.070 15.395 C 110.220 15.179,110.984 14.957,111.297 12.997 C 111.427 12.187,111.740 11.514,111.993 11.502 C 112.246 11.490,115.632 11.440,119.517 11.392 C 123.401 11.344,128.044 11.078,129.833 10.800 L 133.086 10.296 133.086 8.866 C 133.086 8.079,133.211 7.422,133.364 7.406 C 133.518 7.390,138.829 7.310,145.167 7.228 C 151.808 7.142,157.440 6.902,158.457 6.662 C 160.215 6.247,160.301 6.140,160.360 4.275 C 160.398 3.067,161.214 2.735,163.505 2.995 C 164.665 3.127,176.905 3.162,190.706 3.072 C 224.626 2.852,238.947 2.848,270.591 3.049 C 300.218 3.238,298.513 3.094,298.513 5.411 C 298.513 6.728,301.477 7.069,314.009 7.197 C 326.057 7.320,326.734 7.427,326.865 9.231 C 326.980 10.797,331.465 11.476,341.822 11.495 C 346.568 11.504,347.584 11.901,347.584 13.751 C 347.584 14.841,349.330 15.191,355.462 15.329 C 361.756 15.470,362.825 15.806,362.825 17.641 C 362.825 18.767,364.416 19.222,369.433 19.529 C 373.869 19.800,374.349 20.030,374.349 21.882 C 374.349 22.783,377.387 23.792,380.100 23.792 C 382.311 23.792,383.150 24.253,383.453 25.633 C 383.752 26.992,385.365 27.881,387.529 27.881 C 389.321 27.881,389.963 28.380,389.963 29.773 C 389.963 30.623,390.159 30.809,391.279 31.019 C 392.568 31.261,393.099 31.943,393.830 34.301 C 393.943 34.663,394.534 35.059,395.144 35.181 C 396.841 35.521,397.205 37.095,396.803 42.358 C 396.622 44.721,396.539 48.327,396.617 50.372 C 396.894 57.605,396.836 281.242,396.557 282.240 C 396.354 282.963,395.932 283.341,395.081 283.562 C 394.133 283.807,393.838 284.117,393.642 285.073 C 393.324 286.629,392.432 287.592,391.051 287.868 C 390.186 288.041,389.898 288.338,389.717 289.241 C 389.473 290.460,388.472 291.078,386.742 291.078 C 385.099 291.078,383.271 292.173,383.271 293.156 C 383.271 294.417,382.004 295.045,378.918 295.311 C 375.747 295.584,374.349 296.134,374.349 297.110 C 374.349 298.639,373.733 299.119,371.677 299.191 C 364.048 299.457,362.474 300.004,362.768 302.284 C 362.847 302.893,360.352 303.308,355.576 303.479 C 349.432 303.699,347.586 304.123,347.578 305.315 C 347.565 307.198,347.461 307.222,338.027 307.522 C 327.236 307.866,327.654 307.780,326.761 309.863 C 326.295 310.949,325.819 311.523,325.385 311.519 C 317.317 311.461,302.872 311.894,301.859 312.223 C 301.143 312.456,299.909 312.673,299.116 312.706 C 297.874 312.757,297.761 312.829,298.301 313.224 C 298.658 313.485,298.772 313.780,298.567 313.907 C 298.368 314.030,298.143 313.946,298.068 313.719 C 297.982 313.462,297.306 313.656,296.263 314.239 C 293.312 315.886,297.992 315.799,216.777 315.727 C 164.136 315.680,165.428 315.721,165.428 314.108 C 165.428 313.232,165.120 312.827,163.848 312.027 C 162.979 311.481,162.049 310.726,161.782 310.350 C 161.515 309.973,161.180 309.665,161.038 309.665 C 160.897 309.665,160.781 319.995,160.781 332.621 C 160.781 349.666,160.665 355.863,160.333 356.691 C 160.086 357.305,159.810 358.309,159.718 358.922 C 159.376 361.216,159.315 361.254,156.301 361.065 C 154.770 360.969,152.705 361.091,151.675 361.338 L 149.814 361.784 149.814 363.442 C 149.814 364.460,149.959 365.010,150.188 364.868 C 150.394 364.741,150.650 364.864,150.757 365.142 C 151.000 365.777,156.675 366.056,157.048 365.452 C 157.183 365.234,157.701 365.056,158.200 365.056 C 159.355 365.056,160.595 363.830,160.595 362.687 C 160.595 361.913,160.816 361.777,162.414 361.564 C 165.412 361.167,165.229 362.488,165.347 340.371 L 165.452 320.632 227.429 320.739 C 299.648 320.863,298.534 320.909,299.264 317.810 L 299.475 316.914 313.250 316.729 C 328.117 316.528,328.247 316.509,328.258 314.546 C 328.269 312.732,328.277 312.730,338.144 312.585 C 348.556 312.431,348.699 312.397,348.699 310.038 L 348.699 308.644 356.287 308.484 C 364.756 308.306,365.056 308.219,365.056 305.954 L 365.056 304.565 370.185 304.381 C 376.109 304.167,376.854 303.903,377.175 301.895 L 377.403 300.467 381.118 300.288 C 385.178 300.093,385.308 300.019,385.702 297.684 C 385.938 296.288,385.946 296.283,387.743 296.283 C 388.735 296.283,389.651 296.115,389.777 295.911 C 389.903 295.706,390.415 295.539,390.914 295.539 C 392.074 295.539,393.309 294.312,393.309 293.158 C 393.309 292.367,393.523 292.234,395.149 292.010 C 397.254 291.720,397.576 291.429,397.924 289.498 C 398.134 288.334,398.325 288.104,399.087 288.104 L 400.000 288.104 400.000 159.480 L 400.000 30.855 399.093 30.855 C 398.305 30.855,398.154 30.639,397.938 29.194 C 397.624 27.099,397.365 26.910,394.477 26.661 C 391.920 26.441,390.119 25.258,389.889 23.648 C 389.794 22.984,389.485 22.845,387.890 22.752 L 386.004 22.642 385.660 20.708 L 385.316 18.773 381.418 18.587 L 377.520 18.401 377.291 16.989 C 376.939 14.811,376.701 14.718,370.711 14.440 C 367.703 14.300,365.200 14.172,365.149 14.156 C 365.098 14.140,365.056 13.553,365.056 12.852 C 365.056 10.645,364.494 10.415,358.988 10.363 C 356.294 10.337,352.918 10.212,351.487 10.084 L 348.885 9.851 348.761 8.552 C 348.545 6.271,348.777 6.320,338.059 6.320 L 328.253 6.320 328.247 4.926 C 328.236 2.283,329.045 2.428,313.583 2.310 L 299.628 2.205 299.628 1.102 L 299.628 0.000 228.810 0.000 L 157.993 0.000 157.993 1.110 M13.383 227.190 C 11.835 227.615,10.781 228.740,10.781 229.967 C 10.781 230.710,10.584 230.864,9.572 230.908 C 6.252 231.052,6.537 230.874,6.388 232.900 C 6.221 235.175,6.361 235.043,4.118 235.043 C 3.098 235.043,2.276 235.147,2.291 235.273 C 2.589 237.756,2.189 239.033,1.115 239.033 L 0.000 239.033 0.000 298.141 L 0.000 357.249 1.115 357.249 C 2.217 357.249,2.230 357.273,2.230 359.264 C 2.230 361.277,2.968 362.004,4.686 361.684 C 5.977 361.444,6.320 361.752,6.320 363.152 C 6.320 365.173,6.916 365.504,10.935 365.714 L 14.419 365.896 14.651 367.346 C 14.980 369.406,15.738 369.605,23.934 369.783 C 30.879 369.934,30.952 369.927,30.753 369.169 C 30.643 368.747,30.725 368.401,30.935 368.401 C 31.178 368.401,31.191 368.232,30.972 367.937 C 30.782 367.681,30.654 367.113,30.688 366.674 C 30.774 365.565,27.672 364.989,21.456 364.960 C 16.412 364.937,16.297 364.895,16.099 363.028 C 15.925 361.391,15.098 360.973,11.918 360.915 C 6.380 360.813,6.903 361.001,6.676 359.030 C 6.429 356.882,6.443 356.896,4.429 356.783 L 2.788 356.691 2.686 303.532 C 2.595 256.317,2.648 250.174,3.160 248.600 C 3.577 247.320,3.631 246.629,3.355 246.115 C 3.146 245.723,2.974 244.398,2.974 243.170 L 2.974 240.938 4.657 240.685 C 6.544 240.402,7.063 239.780,7.063 237.802 C 7.063 236.186,7.510 235.844,9.995 235.564 C 12.402 235.293,12.317 235.366,12.446 233.465 C 12.585 231.413,12.231 231.527,18.771 231.415 C 21.961 231.360,24.665 231.221,24.780 231.106 C 25.190 230.696,25.183 228.056,24.771 227.531 C 24.437 227.107,24.458 227.061,24.872 227.309 C 25.226 227.523,25.308 227.486,25.128 227.195 C 24.800 226.664,15.314 226.660,13.383 227.190 M139.896 230.747 C 140.201 231.240,142.007 231.606,142.007 231.175 C 142.007 230.999,141.770 230.855,141.480 230.855 C 141.190 230.855,140.661 230.743,140.304 230.606 C 139.895 230.449,139.744 230.502,139.896 230.747 M49.628 234.698 C 47.458 235.366,48.564 235.783,51.688 235.475 C 53.353 235.311,54.255 235.066,54.168 234.802 C 53.975 234.215,51.391 234.156,49.628 234.698 M111.896 234.714 C 111.896 235.246,119.492 236.022,119.975 235.539 C 120.098 235.416,119.856 235.316,119.438 235.316 C 119.020 235.316,118.078 235.065,117.344 234.758 C 115.600 234.030,111.896 234.000,111.896 234.714 M33.457 238.848 C 33.071 239.313,33.124 239.405,33.783 239.405 C 34.237 239.405,34.572 239.168,34.572 238.848 C 34.572 238.541,34.426 238.290,34.246 238.290 C 34.067 238.290,33.712 238.541,33.457 238.848 M131.970 238.848 C 131.970 239.168,132.306 239.405,132.759 239.405 C 133.418 239.405,133.472 239.313,133.086 238.848 C 132.831 238.541,132.476 238.290,132.296 238.290 C 132.117 238.290,131.970 238.541,131.970 238.848 M30.186 241.338 C 29.578 241.947,29.624 242.400,30.269 242.153 C 30.845 241.932,31.381 240.892,30.918 240.892 C 30.761 240.892,30.431 241.093,30.186 241.338 M136.059 243.123 C 136.059 244.326,136.095 244.362,136.697 243.760 C 137.299 243.158,137.299 243.087,136.697 242.485 C 136.095 241.884,136.059 241.919,136.059 243.123 M160.094 244.686 C 159.567 249.076,159.893 251.399,160.794 249.663 C 161.554 248.198,161.656 242.978,160.927 242.835 C 160.462 242.743,160.279 243.150,160.094 244.686 M132.063 246.922 C 131.603 247.144,131.227 247.538,131.227 247.798 C 131.227 248.312,133.234 247.502,133.658 246.817 C 133.940 246.360,133.116 246.414,132.063 246.922 M33.303 247.264 C 33.733 247.959,34.944 248.374,34.944 247.826 C 34.944 247.536,34.531 247.220,34.026 247.123 C 33.521 247.027,33.196 247.090,33.303 247.264 M48.449 251.096 C 48.822 251.379,49.993 251.717,51.051 251.847 C 52.109 251.978,53.413 252.167,53.949 252.269 C 54.594 252.392,54.995 252.271,55.133 251.912 C 55.362 251.314,51.988 250.547,49.226 250.569 C 47.905 250.580,47.833 250.629,48.449 251.096 M114.684 250.808 C 111.784 251.054,110.905 251.303,110.905 251.880 C 110.905 252.291,111.170 252.397,111.865 252.261 C 112.393 252.159,113.829 251.963,115.056 251.827 C 120.009 251.278,119.683 250.385,114.684 250.808 M137.296 365.496 C 135.499 365.824,135.379 365.913,135.485 366.845 C 135.547 367.395,135.445 368.137,135.258 368.494 C 134.996 368.995,135.071 369.153,135.582 369.179 C 135.947 369.197,135.663 369.379,134.951 369.583 C 134.030 369.847,133.225 369.823,132.163 369.498 C 130.361 368.948,112.030 368.955,107.774 369.508 C 106.259 369.705,104.726 369.871,104.368 369.877 C 103.925 369.885,103.717 370.185,103.717 370.818 L 103.717 371.747 119.145 371.747 L 134.572 371.747 134.572 370.818 C 134.572 369.756,134.618 369.751,142.997 369.882 C 148.202 369.964,149.071 369.566,149.071 367.100 C 149.071 366.125,149.234 365.789,149.721 365.757 C 150.079 365.733,149.703 365.575,148.885 365.406 C 146.912 364.998,139.714 365.054,137.296 365.496 M42.193 368.996 C 41.989 369.054,39.557 369.162,36.790 369.238 C 31.281 369.387,30.855 369.502,30.855 370.840 L 30.855 371.747 46.468 371.747 L 62.082 371.747 62.082 370.859 C 62.082 369.714,61.375 369.602,52.416 369.332 C 48.634 369.218,44.870 369.072,44.052 369.008 C 43.234 368.944,42.398 368.938,42.193 368.996 " stroke="none" fill="#8a8a8a" fill-rule="evenodd"></path><path id="path3" d="M160.890 3.143 C 160.611 3.357,160.373 3.866,160.360 4.275 C 160.301 6.140,160.215 6.247,158.457 6.662 C 157.440 6.902,151.808 7.142,145.167 7.228 C 138.829 7.310,133.518 7.390,133.364 7.406 C 133.211 7.422,133.086 8.079,133.086 8.866 L 133.086 10.296 129.833 10.800 C 128.044 11.078,123.401 11.344,119.517 11.392 C 115.632 11.440,112.246 11.490,111.993 11.502 C 111.740 11.514,111.427 12.187,111.297 12.997 C 110.984 14.957,110.220 15.179,103.070 15.395 C 96.662 15.588,96.768 15.558,96.444 17.283 C 96.131 18.956,94.818 19.391,89.641 19.538 C 85.435 19.657,84.758 19.968,84.758 21.778 C 84.758 22.771,84.541 22.862,80.820 23.426 C 76.730 24.045,76.293 24.263,76.001 25.819 C 75.783 26.979,75.621 27.138,74.644 27.138 C 72.327 27.138,69.498 28.250,69.124 29.308 C 68.518 31.019,68.189 31.372,66.884 31.709 C 65.217 32.140,64.684 32.616,64.684 33.676 C 64.684 35.451,63.563 37.059,61.999 37.527 L 60.525 37.969 60.653 41.445 C 60.759 44.334,60.921 45.110,61.611 46.043 C 62.481 47.219,62.256 48.961,60.837 52.045 C 60.519 52.734,60.384 74.336,60.311 135.874 C 60.204 226.677,60.077 221.007,62.280 223.978 L 63.107 225.093 81.089 225.133 C 101.865 225.180,116.788 226.003,119.122 227.231 C 119.519 227.440,120.941 227.749,122.282 227.917 C 123.624 228.086,125.892 228.395,127.323 228.604 C 128.755 228.813,131.459 229.152,133.334 229.356 C 135.208 229.561,137.132 229.888,137.609 230.083 C 138.086 230.279,139.270 230.542,140.242 230.669 C 141.234 230.799,142.007 231.095,142.007 231.345 C 142.007 231.808,143.381 232.305,146.840 233.094 C 149.794 233.768,153.160 235.062,153.160 235.524 C 153.160 235.965,155.923 237.546,156.694 237.546 C 157.435 237.546,158.881 239.449,159.450 241.176 C 159.805 242.249,160.194 242.747,160.741 242.825 C 161.677 242.959,161.676 247.967,160.740 249.762 C 160.317 250.571,160.227 255.852,160.225 279.869 L 160.223 308.995 161.431 310.126 C 162.096 310.748,163.267 311.654,164.033 312.139 C 165.126 312.830,165.428 313.256,165.428 314.108 C 165.428 315.721,164.136 315.680,216.777 315.727 C 297.992 315.799,293.312 315.886,296.263 314.239 C 297.306 313.656,297.982 313.462,298.068 313.719 C 298.143 313.946,298.368 314.030,298.567 313.907 C 298.772 313.780,298.658 313.485,298.301 313.224 C 297.761 312.829,297.874 312.757,299.116 312.706 C 299.909 312.673,301.143 312.456,301.859 312.223 C 302.872 311.894,317.317 311.461,325.385 311.519 C 325.819 311.523,326.295 310.949,326.761 309.863 C 327.654 307.780,327.236 307.866,338.027 307.522 C 347.461 307.222,347.565 307.198,347.578 305.315 C 347.586 304.123,349.432 303.699,355.576 303.479 C 360.352 303.308,362.847 302.893,362.768 302.284 C 362.474 300.004,364.048 299.457,371.677 299.191 C 373.733 299.119,374.349 298.639,374.349 297.110 C 374.349 296.134,375.747 295.584,378.918 295.311 C 382.004 295.045,383.271 294.417,383.271 293.156 C 383.271 292.173,385.099 291.078,386.742 291.078 C 388.472 291.078,389.473 290.460,389.717 289.241 C 389.898 288.338,390.186 288.041,391.051 287.868 C 392.432 287.592,393.324 286.629,393.642 285.073 C 393.838 284.117,394.133 283.807,395.081 283.562 C 395.932 283.341,396.354 282.963,396.557 282.240 C 396.836 281.242,396.894 57.605,396.617 50.372 C 396.539 48.327,396.622 44.721,396.803 42.358 C 397.205 37.095,396.841 35.521,395.144 35.181 C 394.534 35.059,393.943 34.663,393.830 34.301 C 393.099 31.943,392.568 31.261,391.279 31.019 C 390.159 30.809,389.963 30.623,389.963 29.773 C 389.963 28.380,389.321 27.881,387.529 27.881 C 385.365 27.881,383.752 26.992,383.453 25.633 C 383.150 24.253,382.311 23.792,380.100 23.792 C 377.387 23.792,374.349 22.783,374.349 21.882 C 374.349 20.030,373.869 19.800,369.433 19.529 C 364.416 19.222,362.825 18.767,362.825 17.641 C 362.825 15.806,361.756 15.470,355.462 15.329 C 349.330 15.191,347.584 14.841,347.584 13.751 C 347.584 11.901,346.568 11.504,341.822 11.495 C 331.465 11.476,326.980 10.797,326.865 9.231 C 326.734 7.427,326.057 7.320,314.009 7.197 C 301.477 7.069,298.513 6.728,298.513 5.411 C 298.513 3.094,300.218 3.238,270.591 3.049 C 238.947 2.848,224.626 2.852,190.706 3.072 C 176.905 3.162,164.665 3.127,163.505 2.995 C 162.230 2.850,161.196 2.909,160.890 3.143 M278.625 3.816 C 286.597 3.937,288.499 4.257,290.335 5.784 C 291.352 6.631,301.306 7.560,311.710 7.780 C 322.107 8.000,324.164 8.348,324.164 9.886 C 324.164 11.018,329.823 11.896,337.122 11.896 C 342.312 11.896,344.503 12.370,345.070 13.615 C 345.780 15.174,349.044 15.980,354.657 15.983 C 359.033 15.985,360.595 16.419,360.595 17.634 C 360.595 18.875,364.339 20.074,368.216 20.074 C 371.060 20.074,372.335 20.581,372.793 21.892 C 373.185 23.018,375.889 24.168,378.136 24.165 C 380.278 24.163,382.528 25.268,382.528 26.325 C 382.528 26.919,384.238 27.845,386.114 28.265 C 388.177 28.727,388.848 29.190,388.848 30.151 C 388.848 30.605,389.470 31.158,390.660 31.761 C 392.437 32.661,392.937 33.266,392.937 34.513 C 392.937 34.856,393.708 35.601,394.652 36.172 L 396.368 37.208 396.158 42.117 C 396.042 44.817,395.783 48.012,395.582 49.218 C 395.297 50.930,395.334 51.703,395.751 52.749 C 396.213 53.906,396.273 69.632,396.191 168.022 L 396.097 281.956 394.517 282.827 C 393.648 283.307,392.937 283.929,392.937 284.211 C 392.937 285.497,392.015 286.641,390.648 287.050 C 389.585 287.369,389.060 287.815,388.572 288.813 C 388.031 289.918,387.620 290.222,386.189 290.576 C 383.691 291.192,382.426 291.883,381.914 292.910 C 381.320 294.102,380.056 294.766,378.351 294.782 C 375.684 294.808,373.530 295.627,372.777 296.903 C 371.930 298.336,370.488 298.885,367.567 298.885 C 364.262 298.885,361.455 299.811,360.775 301.126 C 360.054 302.521,358.401 302.969,353.975 302.972 C 348.958 302.975,345.400 303.914,344.576 305.453 C 343.897 306.721,343.464 306.798,335.502 307.054 C 331.413 307.186,327.732 307.424,327.323 307.584 C 325.575 308.267,324.907 308.707,324.718 309.304 C 324.382 310.363,320.851 310.854,311.152 311.192 C 295.803 311.726,292.717 312.001,291.538 312.940 C 288.644 315.244,294.093 315.047,230.483 315.147 C 168.270 315.246,169.187 315.271,168.598 313.417 C 168.463 312.990,167.738 312.526,166.754 312.235 C 164.875 311.680,164.422 311.372,163.247 309.851 L 162.386 308.736 162.496 275.569 L 162.605 242.403 160.675 239.815 C 159.614 238.392,158.409 237.121,157.997 236.990 C 157.586 236.860,157.249 236.597,157.249 236.406 C 157.249 236.215,157.010 236.059,156.718 236.059 C 156.427 236.059,155.883 235.677,155.510 235.209 C 154.843 234.372,151.756 232.719,150.840 232.708 C 150.228 232.701,147.315 231.683,146.112 231.056 C 144.206 230.062,142.128 229.427,139.405 229.008 C 132.680 227.971,129.512 227.347,128.067 226.774 C 123.671 225.030,109.706 224.173,82.758 223.991 C 63.291 223.860,63.829 223.942,62.240 220.873 L 61.152 218.773 61.338 136.349 L 61.524 53.924 62.962 52.528 L 64.400 51.131 64.222 48.640 C 64.066 46.457,63.882 45.961,62.735 44.620 C 61.276 42.916,61.341 40.641,62.883 39.398 C 63.268 39.087,64.016 37.582,64.545 36.052 C 65.667 32.809,65.983 32.342,67.057 32.342 C 67.967 32.342,69.722 30.851,70.058 29.791 C 70.310 28.998,71.544 28.414,73.792 28.026 C 75.486 27.733,76.952 26.897,76.952 26.223 C 76.952 25.227,78.440 24.466,81.016 24.142 C 84.190 23.744,85.183 23.264,86.314 21.585 C 86.932 20.669,87.490 20.282,88.290 20.217 C 88.903 20.166,90.660 20.038,92.193 19.930 C 96.029 19.662,97.727 19.118,98.143 18.025 C 98.722 16.502,100.312 15.985,104.424 15.985 C 107.678 15.985,110.622 15.524,112.710 14.687 C 113.056 14.549,113.593 14.047,113.905 13.571 C 114.661 12.418,117.220 11.896,122.123 11.896 C 130.064 11.896,135.316 10.936,135.316 9.484 C 135.316 8.328,136.873 8.111,146.414 7.941 C 151.658 7.847,156.952 7.620,158.178 7.435 C 159.405 7.251,162.082 6.914,164.126 6.687 C 169.007 6.146,169.218 6.096,170.097 5.277 C 170.510 4.892,171.343 4.439,171.948 4.269 C 174.403 3.580,243.620 3.286,278.625 3.816 M182.342 22.677 C 183.864 23.064,186.273 23.064,187.175 22.677 C 187.659 22.468,186.753 22.363,184.572 22.375 C 182.277 22.387,181.577 22.482,182.342 22.677 M273.192 22.763 C 274.763 23.004,275.958 23.001,276.724 22.754 C 277.666 22.450,277.224 22.382,274.349 22.390 L 270.818 22.400 273.192 22.763 M160.506 59.371 C 160.969 59.460,161.638 59.456,161.993 59.363 C 162.349 59.270,161.970 59.197,161.152 59.202 C 160.335 59.206,160.044 59.282,160.506 59.371 M298.606 59.364 C 298.964 59.458,299.549 59.458,299.907 59.364 C 300.265 59.271,299.972 59.194,299.257 59.194 C 298.541 59.194,298.248 59.271,298.606 59.364 M61.896 233.125 C 56.688 233.517,53.898 234.125,54.161 234.810 C 54.362 235.335,53.885 235.400,48.885 235.525 C 47.658 235.556,45.567 235.781,44.238 236.027 C 42.909 236.272,41.069 236.560,40.149 236.666 C 39.229 236.773,38.058 237.001,37.546 237.173 C 37.035 237.345,36.157 237.586,35.595 237.709 C 34.899 237.861,34.572 238.167,34.572 238.669 C 34.572 239.210,34.322 239.405,33.626 239.405 C 32.726 239.405,30.855 240.860,30.855 241.559 C 30.855 241.740,30.437 242.079,29.926 242.312 C 29.414 242.544,28.996 242.900,28.996 243.102 C 28.996 244.103,33.000 247.208,34.294 247.211 C 34.651 247.211,34.944 247.443,34.944 247.724 C 34.944 248.383,36.336 248.903,39.591 249.460 C 41.022 249.705,43.364 250.117,44.796 250.377 C 46.227 250.637,48.014 250.766,48.767 250.666 C 50.804 250.393,55.390 251.241,55.157 251.847 C 54.689 253.067,67.102 253.637,88.476 253.376 C 106.395 253.157,111.108 252.817,110.886 251.759 C 110.773 251.220,111.881 251.016,116.357 250.753 C 124.009 250.303,131.227 248.862,131.227 247.784 C 131.227 247.288,132.774 246.468,133.710 246.468 C 134.738 246.468,136.059 244.551,136.059 243.058 C 136.060 241.419,134.302 239.405,132.871 239.405 C 132.376 239.405,131.970 239.195,131.970 238.937 C 131.970 238.019,130.806 237.606,124.952 236.446 C 123.852 236.229,120.464 235.858,117.424 235.623 C 113.523 235.322,111.896 235.062,111.896 234.738 C 111.896 233.021,77.871 231.923,61.896 233.125 M99.257 235.309 C 103.243 235.511,107.426 235.841,108.550 236.042 C 109.675 236.243,112.535 236.574,114.906 236.778 C 123.706 237.533,126.850 238.269,130.943 240.535 C 131.298 240.731,131.849 240.892,132.168 240.892 C 132.902 240.892,134.572 242.540,134.572 243.265 C 134.572 243.958,132.892 245.295,131.631 245.607 C 131.102 245.737,129.582 246.350,128.253 246.969 C 125.444 248.276,124.253 248.499,115.985 249.262 C 112.612 249.574,109.018 249.999,108.000 250.208 C 100.963 251.648,61.381 251.777,59.099 250.366 C 58.911 250.250,55.448 249.827,51.404 249.427 C 42.253 248.523,39.624 248.045,38.329 247.052 C 38.044 246.833,37.019 246.403,36.052 246.097 C 31.347 244.604,30.935 242.102,35.130 240.500 C 35.743 240.266,37.082 239.683,38.104 239.204 C 39.126 238.725,40.632 238.234,41.450 238.112 C 42.268 237.991,43.938 237.720,45.162 237.511 C 46.386 237.301,49.314 236.974,51.668 236.784 C 54.022 236.593,57.454 236.189,59.294 235.885 C 61.134 235.581,64.814 235.307,67.472 235.275 C 70.130 235.244,73.559 235.090,75.093 234.933 C 78.259 234.608,88.565 234.769,99.257 235.309 " stroke="none" fill="#9ca9ac" fill-rule="evenodd"></path><path id="path4" d="M189.591 3.706 C 172.655 3.966,171.395 4.067,170.097 5.277 C 169.218 6.096,169.007 6.146,164.126 6.687 C 162.082 6.914,159.405 7.251,158.178 7.435 C 156.952 7.620,151.658 7.847,146.414 7.941 C 136.873 8.111,135.316 8.328,135.316 9.484 C 135.316 10.936,130.064 11.896,122.123 11.896 C 117.220 11.896,114.661 12.418,113.905 13.571 C 113.593 14.047,113.056 14.549,112.710 14.687 C 110.622 15.524,107.678 15.985,104.424 15.985 C 100.312 15.985,98.722 16.502,98.143 18.025 C 97.727 19.118,96.029 19.662,92.193 19.930 C 90.660 20.038,88.903 20.166,88.290 20.217 C 87.490 20.282,86.932 20.669,86.314 21.585 C 85.183 23.264,84.190 23.744,81.016 24.142 C 78.440 24.466,76.952 25.227,76.952 26.223 C 76.952 26.897,75.486 27.733,73.792 28.026 C 71.544 28.414,70.310 28.998,70.058 29.791 C 69.722 30.851,67.967 32.342,67.057 32.342 C 65.983 32.342,65.667 32.809,64.545 36.052 C 64.016 37.582,63.268 39.087,62.883 39.398 C 61.341 40.641,61.276 42.916,62.735 44.620 C 63.882 45.961,64.066 46.457,64.222 48.640 L 64.400 51.131 62.962 52.528 L 61.524 53.924 61.338 136.349 L 61.152 218.773 62.240 220.873 C 63.829 223.942,63.291 223.860,82.758 223.991 C 109.706 224.173,123.671 225.030,128.067 226.774 C 129.512 227.347,132.680 227.971,139.405 229.008 C 142.128 229.427,144.206 230.062,146.112 231.056 C 147.315 231.683,150.228 232.701,150.840 232.708 C 151.756 232.719,154.843 234.372,155.510 235.209 C 155.883 235.677,156.427 236.059,156.718 236.059 C 157.010 236.059,157.249 236.215,157.249 236.406 C 157.249 236.597,157.586 236.860,157.997 236.990 C 158.409 237.121,159.614 238.392,160.675 239.815 L 162.605 242.403 162.496 275.569 L 162.386 308.736 163.247 309.851 C 164.422 311.372,164.875 311.680,166.754 312.235 C 167.738 312.526,168.463 312.990,168.598 313.417 C 169.187 315.271,168.270 315.246,230.483 315.147 C 294.093 315.047,288.644 315.244,291.538 312.940 C 292.717 312.001,295.803 311.726,311.152 311.192 C 320.851 310.854,324.382 310.363,324.718 309.304 C 324.907 308.707,325.575 308.267,327.323 307.584 C 327.732 307.424,331.413 307.186,335.502 307.054 C 343.464 306.798,343.897 306.721,344.576 305.453 C 345.400 303.914,348.958 302.975,353.975 302.972 C 358.401 302.969,360.054 302.521,360.775 301.126 C 361.455 299.811,364.262 298.885,367.567 298.885 C 370.488 298.885,371.930 298.336,372.777 296.903 C 373.530 295.627,375.684 294.808,378.351 294.782 C 380.056 294.766,381.320 294.102,381.914 292.910 C 382.426 291.883,383.691 291.192,386.189 290.576 C 387.620 290.222,388.031 289.918,388.572 288.813 C 389.060 287.815,389.585 287.369,390.648 287.050 C 392.015 286.641,392.937 285.497,392.937 284.211 C 392.937 283.929,393.648 283.307,394.517 282.827 L 396.097 281.956 396.191 168.022 C 396.273 69.632,396.213 53.906,395.751 52.749 C 395.334 51.703,395.297 50.930,395.582 49.218 C 395.783 48.012,396.042 44.817,396.158 42.117 L 396.368 37.208 394.652 36.172 C 393.708 35.601,392.937 34.856,392.937 34.513 C 392.937 33.266,392.437 32.661,390.660 31.761 C 389.470 31.158,388.848 30.605,388.848 30.151 C 388.848 29.190,388.177 28.727,386.114 28.265 C 384.238 27.845,382.528 26.919,382.528 26.325 C 382.528 25.268,380.278 24.163,378.136 24.165 C 375.889 24.168,373.185 23.018,372.793 21.892 C 372.335 20.581,371.060 20.074,368.216 20.074 C 364.339 20.074,360.595 18.875,360.595 17.634 C 360.595 16.419,359.033 15.985,354.657 15.983 C 349.044 15.980,345.780 15.174,345.070 13.615 C 344.503 12.370,342.312 11.896,337.122 11.896 C 329.823 11.896,324.164 11.018,324.164 9.886 C 324.164 8.348,322.107 8.000,311.710 7.780 C 301.306 7.560,291.352 6.631,290.335 5.784 C 288.499 4.257,286.597 3.937,278.625 3.816 C 260.441 3.541,204.864 3.472,189.591 3.706 M277.138 5.299 C 277.546 5.399,278.672 5.595,279.638 5.736 C 280.605 5.876,281.483 6.133,281.591 6.307 C 282.392 7.604,289.004 8.481,300.000 8.748 C 312.797 9.060,313.966 9.151,316.543 10.039 C 324.131 12.654,323.766 12.580,331.220 12.982 C 337.141 13.301,338.622 13.495,339.733 14.097 C 344.250 16.545,344.486 16.599,353.678 17.317 C 356.142 17.509,356.763 17.695,357.546 18.478 C 359.025 19.958,360.675 20.814,362.082 20.832 C 366.028 20.884,369.518 21.744,370.547 22.917 C 371.884 24.441,372.614 24.779,375.279 25.105 C 378.159 25.458,378.979 25.782,380.010 26.975 C 381.025 28.148,382.099 28.715,384.572 29.382 C 386.514 29.905,386.961 30.199,387.622 31.386 C 387.842 31.780,388.668 32.460,389.457 32.897 C 390.400 33.418,391.132 34.214,391.592 35.215 C 392.028 36.163,392.771 36.997,393.560 37.422 C 396.477 38.992,395.685 46.863,392.355 49.392 C 391.450 50.080,390.059 51.292,389.264 52.087 C 388.470 52.882,387.591 53.532,387.311 53.533 C 386.603 53.535,384.296 54.985,383.740 55.777 C 383.487 56.138,382.316 56.718,381.138 57.065 C 377.649 58.094,376.966 58.416,375.925 59.519 C 375.175 60.314,374.253 60.716,372.132 61.174 C 366.874 62.309,366.162 62.553,365.144 63.565 C 363.997 64.707,362.156 65.242,357.583 65.762 C 354.000 66.169,351.861 66.814,350.645 67.856 C 349.488 68.846,346.488 69.482,342.891 69.501 C 341.198 69.510,339.176 69.762,338.290 70.074 C 337.421 70.381,336.170 70.632,335.511 70.632 C 333.902 70.632,331.969 71.311,330.948 72.236 C 330.080 73.021,321.858 73.903,314.913 73.957 C 312.260 73.977,309.484 74.518,308.755 75.156 C 308.560 75.326,308.050 75.465,307.621 75.465 C 307.191 75.465,306.662 75.643,306.444 75.860 C 306.227 76.078,304.311 76.418,302.188 76.616 C 300.065 76.814,297.742 77.137,297.026 77.333 C 296.310 77.530,292.296 77.693,288.104 77.696 C 283.643 77.699,278.654 77.929,276.072 78.251 C 273.160 78.615,268.485 78.793,262.317 78.775 C 257.178 78.761,252.711 78.853,252.389 78.980 C 252.067 79.107,250.060 79.367,247.928 79.558 C 245.796 79.748,242.965 80.080,241.636 80.295 C 237.721 80.929,224.406 81.189,220.818 80.703 C 217.249 80.219,213.705 79.766,208.550 79.137 C 206.605 78.899,200.856 78.728,195.751 78.756 C 189.199 78.792,185.393 78.643,182.767 78.251 C 180.419 77.900,176.304 77.695,171.586 77.695 C 167.481 77.695,163.537 77.527,162.823 77.321 C 162.109 77.115,159.628 76.838,157.310 76.705 C 154.992 76.572,152.901 76.275,152.663 76.046 C 152.425 75.816,151.478 75.404,150.558 75.131 C 149.638 74.858,148.383 74.463,147.770 74.254 C 147.156 74.045,144.396 73.829,141.636 73.774 C 133.498 73.612,127.138 72.716,127.138 71.731 C 127.138 71.583,126.761 71.372,126.301 71.262 C 121.661 70.150,118.168 69.517,116.679 69.517 C 114.527 69.517,109.775 68.823,108.736 68.357 C 108.327 68.174,107.491 67.721,106.877 67.351 C 105.600 66.580,103.248 65.928,100.558 65.599 C 97.530 65.229,95.321 64.541,94.065 63.579 C 92.637 62.485,90.561 61.723,88.983 61.716 C 87.191 61.707,83.914 60.578,83.086 59.684 C 82.044 58.560,80.675 57.765,79.368 57.524 C 77.167 57.120,75.363 56.217,74.468 55.074 C 73.835 54.265,72.940 53.730,71.536 53.322 C 70.232 52.943,69.362 52.447,69.086 51.925 C 68.851 51.480,68.122 50.485,67.467 49.716 C 65.808 47.766,64.917 43.564,65.438 40.149 C 66.403 33.828,66.052 34.485,69.221 33.062 C 70.183 32.630,71.575 31.706,72.314 31.008 C 73.054 30.310,73.808 29.740,73.990 29.740 C 74.738 29.740,78.439 28.174,78.439 27.857 C 78.439 27.092,80.113 25.650,81.015 25.637 C 81.989 25.624,85.460 24.843,86.803 24.334 C 87.212 24.180,87.881 23.686,88.290 23.237 C 89.529 21.878,90.614 21.513,94.493 21.148 C 98.011 20.817,100.684 19.958,101.299 18.962 C 101.872 18.035,103.877 17.519,108.550 17.096 C 114.120 16.592,117.177 15.889,118.137 14.890 C 119.267 13.714,120.187 13.467,124.349 13.222 C 136.307 12.521,136.112 12.554,142.373 10.133 C 144.684 9.239,145.279 9.186,156.686 8.868 C 168.666 8.534,173.325 8.040,176.208 6.798 C 178.799 5.682,180.234 5.481,187.546 5.210 C 195.516 4.915,275.896 4.994,277.138 5.299 M214.126 18.400 C 213.187 18.607,207.480 19.278,202.974 19.712 C 200.623 19.938,194.768 20.174,189.963 20.235 C 171.423 20.470,163.504 21.201,161.878 22.828 C 161.372 23.333,155.858 24.026,148.327 24.531 C 145.236 24.738,142.737 25.103,141.821 25.480 C 141.004 25.817,139.833 26.308,139.219 26.570 C 136.557 27.708,134.547 28.248,131.413 28.665 C 128.292 29.080,124.907 30.211,124.907 30.839 C 124.907 31.152,122.857 32.042,120.558 32.727 C 119.636 33.002,118.267 33.893,117.212 34.905 C 116.231 35.846,114.966 36.950,114.403 37.358 C 113.763 37.820,113.011 39.034,112.402 40.587 L 111.425 43.075 112.776 44.653 C 113.519 45.520,114.126 46.515,114.126 46.863 C 114.126 47.571,116.378 49.442,117.230 49.442 C 117.533 49.442,118.255 49.956,118.835 50.584 C 120.083 51.936,123.032 53.532,124.282 53.532 C 125.578 53.532,127.489 54.255,129.182 55.387 C 131.014 56.611,133.028 57.160,137.361 57.615 C 143.946 58.307,144.788 58.480,146.235 59.433 C 147.982 60.585,152.273 61.231,161.338 61.707 C 164.712 61.884,168.225 62.221,169.145 62.455 C 172.091 63.207,176.702 63.899,178.898 63.920 C 180.071 63.931,181.744 64.103,182.615 64.301 C 188.856 65.718,190.491 65.764,230.855 65.657 C 257.718 65.586,270.660 65.424,271.933 65.143 C 273.753 64.742,275.363 64.513,284.015 63.427 C 286.366 63.132,288.959 62.686,289.777 62.436 C 290.595 62.187,293.773 61.859,296.840 61.708 C 306.772 61.220,310.624 60.715,312.766 59.618 C 315.146 58.400,318.427 57.651,321.461 57.634 C 324.043 57.619,328.983 56.150,330.171 55.043 C 330.570 54.672,331.932 54.167,333.199 53.920 C 336.545 53.269,338.576 52.469,339.958 51.255 C 340.628 50.667,341.278 50.186,341.403 50.186 C 342.304 50.186,346.505 45.693,347.001 44.198 C 347.615 42.350,346.555 37.918,345.499 37.918 C 345.214 37.918,344.981 37.770,344.981 37.590 C 344.981 37.409,344.661 37.178,344.270 37.075 C 343.878 36.973,343.140 36.227,342.629 35.418 C 341.664 33.888,340.996 33.512,337.509 32.534 C 336.325 32.202,335.041 31.539,334.535 30.998 C 333.248 29.625,331.606 29.052,327.361 28.496 C 324.695 28.146,323.013 27.701,321.561 26.959 C 318.799 25.547,315.967 24.934,310.223 24.503 C 301.476 23.847,299.487 23.562,297.584 22.696 C 293.860 21.001,288.649 20.547,269.703 20.263 C 260.916 20.132,255.107 19.741,249.257 18.888 C 246.590 18.499,215.630 18.069,214.126 18.400 M187.175 22.677 C 186.273 23.064,183.864 23.064,182.342 22.677 C 181.577 22.482,182.277 22.387,184.572 22.375 C 186.753 22.363,187.659 22.468,187.175 22.677 M276.724 22.754 C 275.958 23.001,274.763 23.004,273.192 22.763 L 270.818 22.400 274.349 22.390 C 277.224 22.382,277.666 22.450,276.724 22.754 M273.420 25.593 C 281.804 25.967,282.810 26.114,286.117 27.444 C 287.444 27.977,289.561 28.330,292.995 28.591 C 295.723 28.797,300.381 29.150,303.346 29.375 C 309.938 29.874,312.327 30.304,314.498 31.385 C 316.698 32.479,318.694 32.943,323.420 33.460 C 328.051 33.966,329.415 34.341,330.338 35.361 C 331.192 36.305,333.218 37.175,334.562 37.175 C 336.429 37.175,337.938 37.964,338.857 39.421 C 339.348 40.198,340.258 41.134,340.878 41.501 C 342.578 42.505,341.939 44.610,339.936 44.610 C 339.467 44.610,338.443 45.235,337.625 46.021 C 336.077 47.508,335.207 47.848,330.128 48.948 C 328.398 49.322,326.393 50.030,325.667 50.521 C 323.954 51.683,322.591 52.008,317.780 52.404 C 315.598 52.584,313.476 52.911,313.065 53.131 C 312.653 53.351,311.237 53.532,309.918 53.532 C 307.521 53.532,306.210 53.907,304.459 55.096 C 303.385 55.825,293.038 56.870,286.803 56.878 C 284.758 56.881,281.245 57.136,278.996 57.444 C 267.745 58.987,265.492 59.208,252.788 60.015 C 232.642 61.294,196.893 60.254,184.015 58.014 C 180.095 57.332,175.237 56.895,169.145 56.677 C 158.976 56.313,156.120 55.971,154.053 54.871 C 152.065 53.812,152.198 53.840,144.981 52.980 C 137.736 52.116,135.251 51.650,134.201 50.957 C 133.289 50.357,132.416 49.937,130.405 49.132 C 129.851 48.910,128.513 48.625,127.431 48.499 C 124.943 48.208,123.459 47.645,122.399 46.591 C 121.939 46.135,120.977 45.483,120.261 45.143 C 119.545 44.803,118.959 44.307,118.959 44.041 C 118.959 43.774,118.759 43.490,118.515 43.408 C 117.928 43.213,119.120 39.332,120.004 38.558 C 120.350 38.256,122.009 37.760,123.692 37.456 C 126.080 37.025,127.198 36.596,128.783 35.504 C 130.846 34.083,134.796 33.135,138.804 33.099 C 140.725 33.081,143.053 32.379,144.424 31.403 C 145.868 30.375,149.010 29.826,156.134 29.356 C 170.109 28.435,171.138 28.317,173.247 27.389 C 176.114 26.127,179.355 25.657,185.532 25.607 C 188.480 25.583,192.565 25.450,194.610 25.311 C 200.086 24.940,263.891 25.169,273.420 25.593 M394.270 53.444 C 395.540 54.303,395.544 54.662,395.537 167.558 C 395.529 288.999,395.682 280.801,393.404 281.745 C 392.793 281.998,392.069 282.654,391.795 283.203 C 391.109 284.580,389.928 285.874,389.358 285.874 C 389.097 285.874,388.349 286.537,387.698 287.348 C 386.566 288.757,385.198 289.433,382.105 290.112 C 381.565 290.231,380.623 290.899,380.010 291.596 C 378.515 293.299,377.941 293.558,374.951 293.876 C 372.660 294.121,372.249 294.294,371.003 295.540 C 369.600 296.943,365.408 298.141,361.896 298.143 C 360.763 298.144,358.919 299.082,357.557 300.351 C 356.632 301.213,353.108 301.859,349.332 301.859 C 346.112 301.859,343.653 302.561,341.450 304.109 C 339.768 305.291,335.767 305.941,330.112 305.952 C 326.276 305.959,320.784 307.040,318.129 308.311 C 315.411 309.612,313.039 309.870,302.788 309.978 C 293.425 310.077,291.623 310.262,285.874 311.714 C 281.060 312.930,277.998 313.306,269.517 313.723 C 261.549 314.114,188.891 314.086,188.283 313.691 C 188.074 313.556,186.067 313.400,183.822 313.346 C 181.577 313.291,178.736 313.017,177.509 312.736 C 176.283 312.455,174.861 312.128,174.349 312.010 C 173.838 311.893,173.253 311.674,173.048 311.526 C 172.844 311.377,171.924 311.142,171.004 311.004 C 167.131 310.422,164.948 309.786,164.432 309.088 C 163.975 308.469,163.909 303.498,163.976 274.813 C 164.044 245.321,163.986 241.183,163.491 240.612 C 163.182 240.255,162.613 239.563,162.227 239.073 C 159.498 235.618,155.930 232.931,152.788 231.966 C 151.255 231.495,149.582 230.744,149.071 230.298 C 147.880 229.258,146.520 228.777,143.400 228.290 C 136.907 227.277,135.411 226.949,134.201 226.276 C 131.600 224.829,123.878 223.943,106.134 223.055 C 102.862 222.891,99.768 222.667,99.257 222.556 C 90.236 220.604,69.792 220.790,67.739 222.843 C 67.507 223.075,66.453 221.732,65.566 220.073 C 64.423 217.938,64.852 57.727,66.005 55.763 C 66.797 54.415,68.030 53.806,68.030 54.762 C 68.030 55.405,70.796 57.993,71.483 57.993 C 71.746 57.993,72.757 58.745,73.731 59.665 C 74.705 60.586,75.739 61.338,76.028 61.338 C 77.109 61.338,80.132 62.530,80.691 63.177 C 81.793 64.452,84.028 65.249,88.517 65.970 C 89.255 66.088,90.593 66.747,91.491 67.433 C 93.331 68.840,94.067 69.062,98.469 69.531 C 102.095 69.917,104.049 70.487,104.838 71.387 C 105.834 72.525,108.805 73.220,114.411 73.626 C 121.153 74.115,121.328 74.150,122.416 75.238 C 123.918 76.740,126.571 77.215,135.874 77.648 C 139.145 77.800,142.292 78.124,142.868 78.367 C 143.444 78.611,145.020 78.810,146.370 78.810 C 147.912 78.810,149.045 78.999,149.413 79.318 C 149.969 79.799,152.005 80.468,155.762 81.404 C 156.682 81.633,159.610 81.784,162.268 81.740 C 177.342 81.487,188.395 82.207,191.022 83.613 C 193.011 84.677,197.844 84.846,228.439 84.915 C 260.469 84.987,264.590 84.841,267.759 83.517 C 270.465 82.386,273.544 82.025,281.413 81.913 C 297.372 81.688,303.553 81.505,304.647 81.224 C 305.260 81.067,307.209 80.460,308.977 79.874 C 310.745 79.289,312.940 78.810,313.856 78.810 C 314.771 78.810,316.231 78.559,317.100 78.253 C 318.104 77.899,320.047 77.695,322.425 77.695 C 328.785 77.695,334.771 76.714,336.245 75.431 C 337.143 74.650,340.114 74.058,345.353 73.617 C 349.495 73.268,352.434 72.477,353.591 71.400 C 354.496 70.557,356.815 69.867,359.447 69.656 C 363.058 69.367,365.571 68.697,366.914 67.664 C 368.911 66.129,369.706 65.799,371.412 65.799 C 373.824 65.799,376.826 64.662,378.527 63.104 C 379.364 62.337,380.426 61.710,380.886 61.710 C 382.143 61.710,385.329 59.984,386.020 58.930 C 386.602 58.042,389.108 56.506,389.975 56.506 C 390.571 56.506,391.450 55.538,391.450 54.880 C 391.450 53.831,393.385 52.846,394.270 53.444 M161.993 59.363 C 161.638 59.456,160.969 59.460,160.506 59.371 C 160.044 59.282,160.335 59.206,161.152 59.202 C 161.970 59.197,162.349 59.270,161.993 59.363 M299.907 59.364 C 299.549 59.458,298.964 59.458,298.606 59.364 C 298.248 59.271,298.541 59.194,299.257 59.194 C 299.972 59.194,300.265 59.271,299.907 59.364 M75.093 234.933 C 73.559 235.090,70.130 235.244,67.472 235.275 C 64.814 235.307,61.134 235.581,59.294 235.885 C 57.454 236.189,54.022 236.593,51.668 236.784 C 49.314 236.974,46.386 237.301,45.162 237.511 C 43.938 237.720,42.268 237.991,41.450 238.112 C 40.632 238.234,39.126 238.725,38.104 239.204 C 37.082 239.683,35.743 240.266,35.130 240.500 C 30.935 242.102,31.347 244.604,36.052 246.097 C 37.019 246.403,38.044 246.833,38.329 247.052 C 39.624 248.045,42.253 248.523,51.404 249.427 C 55.448 249.827,58.911 250.250,59.099 250.366 C 61.381 251.777,100.963 251.648,108.000 250.208 C 109.018 249.999,112.612 249.574,115.985 249.262 C 124.253 248.499,125.444 248.276,128.253 246.969 C 129.582 246.350,131.102 245.737,131.631 245.607 C 132.892 245.295,134.572 243.958,134.572 243.265 C 134.572 242.540,132.902 240.892,132.168 240.892 C 131.849 240.892,131.298 240.731,130.943 240.535 C 126.850 238.269,123.706 237.533,114.906 236.778 C 112.535 236.574,109.675 236.243,108.550 236.042 C 104.035 235.234,79.942 234.435,75.093 234.933 M113.755 238.229 C 119.387 238.606,122.305 239.126,122.305 239.752 C 122.305 239.924,122.765 240.156,123.327 240.267 C 124.496 240.499,129.646 241.835,130.483 242.125 C 130.790 242.230,131.501 242.418,132.063 242.541 C 132.625 242.664,133.086 242.897,133.086 243.059 C 133.086 243.493,128.526 244.981,127.199 244.981 C 126.571 244.981,125.673 245.131,125.203 245.314 C 124.734 245.498,123.630 245.862,122.751 246.123 C 121.872 246.385,121.036 246.802,120.893 247.049 C 119.547 249.370,47.631 249.314,44.963 246.990 C 44.112 246.248,41.847 245.526,38.095 244.799 C 32.983 243.808,32.428 242.465,36.803 241.672 C 41.740 240.778,43.808 240.217,44.610 239.558 C 45.436 238.878,49.128 238.296,52.949 238.244 C 54.803 238.218,57.491 238.072,58.922 237.919 C 62.651 237.520,106.894 237.771,113.755 238.229 " stroke="none" fill="#bfbfbf" fill-rule="evenodd"></path></g></svg>